<?xml version="1.0" encoding="UTF-8" standalone="no"?>
<!-- Created with Inkscape (http://www.inkscape.org/) -->

<svg
   width="210mm"
   height="297mm"
   viewBox="0 0 210 297"
   version="1.1"
   id="svg1"
   inkscape:export-filename="totalstars.png"
   inkscape:export-xdpi="96"
   inkscape:export-ydpi="96"
   inkscape:version="1.4 (86a8ad7, 2024-10-11)"
   sodipodi:docname="Zeichnung.svg"
   xmlns:inkscape="http://www.inkscape.org/namespaces/inkscape"
   xmlns:sodipodi="http://sodipodi.sourceforge.net/DTD/sodipodi-0.dtd"
   xmlns="http://www.w3.org/2000/svg"
   xmlns:svg="http://www.w3.org/2000/svg">
  <sodipodi:namedview
     id="namedview1"
     pagecolor="#ffffff"
     bordercolor="#000000"
     borderopacity="0.25"
     inkscape:showpageshadow="2"
     inkscape:pageopacity="0.0"
     inkscape:pagecheckerboard="0"
     inkscape:deskcolor="#d1d1d1"
     inkscape:document-units="mm"
     showguides="true"
     inkscape:zoom="0.64"
     inkscape:cx="396.875"
     inkscape:cy="561.71875"
     inkscape:window-width="1240"
     inkscape:window-height="981"
     inkscape:window-x="224"
     inkscape:window-y="0"
     inkscape:window-maximized="0"
     inkscape:current-layer="layer1">
    <sodipodi:guide
       position="114.49676,152.9185"
       orientation="0,-1"
       id="guide5"
       inkscape:locked="false" />
    <sodipodi:guide
       position="10.748698,202.32878"
       orientation="1,0"
       id="guide25"
       inkscape:locked="false" />
  </sodipodi:namedview>
  <defs
     id="defs1" />
  <g
     inkscape:label="Ebene 1"
     inkscape:groupmode="layer"
     id="layer1">
    <g
       id="g5"
       transform="translate(6.201172,-66.145834)">
      <path
         sodipodi:type="star"
         style="fill:#427920;fill-opacity:1;stroke:#28561d;stroke-width:0.105833;stroke-linecap:round"
         id="path1"
         inkscape:flatsided="false"
         sodipodi:sides="5"
         sodipodi:cx="24.205692"
         sodipodi:cy="91.059509"
         sodipodi:r1="28.142445"
         sodipodi:r2="14.071222"
         sodipodi:arg1="0.89179102"
         sodipodi:arg2="1.5201095"
         inkscape:rounded="0"
         inkscape:randomized="0"
         d="M 41.87969,112.9599 24.918613,105.11266 8.8387509,114.63607 11.060656,96.080199 -2.9655972,83.730238 15.368693,80.109316 l 7.41116,-17.156108 9.109309,16.31802 18.606603,1.746903 -12.704428,13.706013 z"
         inkscape:transform-center-x="0.053753221"
         inkscape:transform-center-y="-1.6030456"
         transform="matrix(0.63449881,0.02717518,-0.02599925,0.60704285,9.9791659,73.998674)" />
      <path
         sodipodi:type="star"
         style="fill:#427920;fill-opacity:1;stroke:#28561d;stroke-width:0.105833;stroke-linecap:round"
         id="path2"
         inkscape:flatsided="false"
         sodipodi:sides="5"
         sodipodi:cx="24.205692"
         sodipodi:cy="91.059509"
         sodipodi:r1="28.142445"
         sodipodi:r2="14.071222"
         sodipodi:arg1="0.89179102"
         sodipodi:arg2="1.5201095"
         inkscape:rounded="0"
         inkscape:randomized="0"
         d="M 41.87969,112.9599 24.918613,105.11266 8.8387509,114.63607 11.060656,96.080199 -2.9655972,83.730238 15.368693,80.109316 l 7.41116,-17.156108 9.109309,16.31802 18.606603,1.746903 -12.704428,13.706013 z"
         inkscape:transform-center-x="-0.056354565"
         inkscape:transform-center-y="-1.5534169"
         transform="matrix(0.63379491,0.0403887,-0.03864101,0.6063694,163.06229,73.740155)" />
      <path
         sodipodi:type="star"
         style="fill:#427920;fill-opacity:1;stroke:#28561d;stroke-width:0.105833;stroke-linecap:round"
         id="path3"
         inkscape:flatsided="false"
         sodipodi:sides="5"
         sodipodi:cx="24.205692"
         sodipodi:cy="91.059509"
         sodipodi:r1="28.142445"
         sodipodi:r2="14.071222"
         sodipodi:arg1="0.89179102"
         sodipodi:arg2="1.5201095"
         inkscape:rounded="0"
         inkscape:randomized="0"
         d="M 41.87969,112.9599 24.918613,105.11266 8.8387509,114.63607 11.060656,96.080199 -2.9655972,83.730238 15.368693,80.109316 l 7.41116,-17.156108 9.109309,16.31802 18.606603,1.746903 -12.704428,13.706013 z"
         inkscape:transform-center-x="0.048955769"
         inkscape:transform-center-y="-1.6078328"
         transform="matrix(0.63447385,0.02775175,-0.02655088,0.60701897,123.35986,73.986892)" />
      <path
         sodipodi:type="star"
         style="fill:#427920;fill-opacity:1;stroke:#28561d;stroke-width:0.105833;stroke-linecap:round"
         id="path4"
         inkscape:flatsided="false"
         sodipodi:sides="5"
         sodipodi:cx="24.205692"
         sodipodi:cy="91.059509"
         sodipodi:r1="28.142445"
         sodipodi:r2="14.071222"
         sodipodi:arg1="0.89179102"
         sodipodi:arg2="1.5201095"
         inkscape:rounded="0"
         inkscape:randomized="0"
         d="M 41.87969,112.9599 24.918613,105.11266 8.8387509,114.63607 11.060656,96.080199 -2.9655972,83.730238 15.368693,80.109316 l 7.41116,-17.156108 9.109309,16.31802 18.606603,1.746903 -12.704428,13.706013 z"
         inkscape:transform-center-x="-0.02605463"
         inkscape:transform-center-y="-1.5836029"
         transform="matrix(0.63401607,0.03675395,-0.03516353,0.60658099,85.790624,74.029355)" />
      <path
         sodipodi:type="star"
         style="fill:#427920;fill-opacity:1;stroke:#28561d;stroke-width:0.105833;stroke-linecap:round"
         id="path5"
         inkscape:flatsided="false"
         sodipodi:sides="5"
         sodipodi:cx="24.205692"
         sodipodi:cy="91.059509"
         sodipodi:r1="28.142445"
         sodipodi:r2="14.071222"
         sodipodi:arg1="0.89179102"
         sodipodi:arg2="1.5201095"
         inkscape:rounded="0"
         inkscape:randomized="0"
         d="M 41.87969,112.9599 24.918613,105.11266 8.8387509,114.63607 11.060656,96.080199 -2.9655972,83.730238 15.368693,80.109316 l 7.41116,-17.156108 9.109309,16.31802 18.606603,1.746903 -12.704428,13.706013 z"
         inkscape:transform-center-x="0.27982183"
         inkscape:transform-center-y="-1.3761331"
         transform="matrix(0.63508049,0,0,0.60759936,46.01934,74.448594)" />
    </g>
    <g
       id="g28"
       transform="translate(0.82682291,9.5084633)">
      <path
         sodipodi:type="star"
         style="fill:#427920;fill-opacity:1;stroke:#28561d;stroke-width:0.105833;stroke-linecap:round"
         id="path6"
         inkscape:flatsided="false"
         sodipodi:sides="5"
         sodipodi:cx="24.205692"
         sodipodi:cy="91.059509"
         sodipodi:r1="28.142445"
         sodipodi:r2="14.071222"
         sodipodi:arg1="0.89179102"
         sodipodi:arg2="1.5201095"
         inkscape:rounded="0"
         inkscape:randomized="0"
         d="M 41.87969,112.9599 24.918613,105.11266 8.8387509,114.63607 11.060656,96.080199 -2.9655972,83.730238 15.368693,80.109316 l 7.41116,-17.156108 9.109309,16.31802 18.606603,1.746903 -12.704428,13.706013 z"
         inkscape:transform-center-x="0.053753221"
         inkscape:transform-center-y="-1.6030456"
         transform="matrix(0.63449881,0.02717518,-0.02599925,0.60704285,14.940103,165.77602)" />
      <path
         sodipodi:type="star"
         style="fill:#767676;fill-opacity:1;stroke:#28561d;stroke-width:0.105833;stroke-linecap:round"
         id="path7"
         inkscape:flatsided="false"
         sodipodi:sides="5"
         sodipodi:cx="24.205692"
         sodipodi:cy="91.059509"
         sodipodi:r1="28.142445"
         sodipodi:r2="14.071222"
         sodipodi:arg1="0.89179102"
         sodipodi:arg2="1.5201095"
         inkscape:rounded="0"
         inkscape:randomized="0"
         d="M 41.87969,112.9599 24.918613,105.11266 8.8387509,114.63607 11.060656,96.080199 -2.9655972,83.730238 15.368693,80.109316 l 7.41116,-17.156108 9.109309,16.31802 18.606603,1.746903 -12.704428,13.706013 z"
         inkscape:transform-center-x="-0.056354565"
         inkscape:transform-center-y="-1.5534169"
         transform="matrix(0.63379491,0.0403887,-0.03864101,0.6063694,168.02323,165.5175)" />
      <path
         sodipodi:type="star"
         style="fill:#767676;fill-opacity:1;stroke:#28561d;stroke-width:0.105833;stroke-linecap:round"
         id="path8"
         inkscape:flatsided="false"
         sodipodi:sides="5"
         sodipodi:cx="24.205692"
         sodipodi:cy="91.059509"
         sodipodi:r1="28.142445"
         sodipodi:r2="14.071222"
         sodipodi:arg1="0.89179102"
         sodipodi:arg2="1.5201095"
         inkscape:rounded="0"
         inkscape:randomized="0"
         d="M 41.87969,112.9599 24.918613,105.11266 8.8387509,114.63607 11.060656,96.080199 -2.9655972,83.730238 15.368693,80.109316 l 7.41116,-17.156108 9.109309,16.31802 18.606603,1.746903 -12.704428,13.706013 z"
         inkscape:transform-center-x="0.048955769"
         inkscape:transform-center-y="-1.6078328"
         transform="matrix(0.63447385,0.02775175,-0.02655088,0.60701897,128.3208,165.76423)" />
      <path
         sodipodi:type="star"
         style="fill:#767676;fill-opacity:1;stroke:#28561d;stroke-width:0.105833;stroke-linecap:round"
         id="path9"
         inkscape:flatsided="false"
         sodipodi:sides="5"
         sodipodi:cx="24.205692"
         sodipodi:cy="91.059509"
         sodipodi:r1="28.142445"
         sodipodi:r2="14.071222"
         sodipodi:arg1="0.89179102"
         sodipodi:arg2="1.5201095"
         inkscape:rounded="0"
         inkscape:randomized="0"
         d="M 41.87969,112.9599 24.918613,105.11266 8.8387509,114.63607 11.060656,96.080199 -2.9655972,83.730238 15.368693,80.109316 l 7.41116,-17.156108 9.109309,16.31802 18.606603,1.746903 -12.704428,13.706013 z"
         inkscape:transform-center-x="-0.02605463"
         inkscape:transform-center-y="-1.5836029"
         transform="matrix(0.63401607,0.03675395,-0.03516353,0.60658099,90.751561,165.8067)" />
      <path
         sodipodi:type="star"
         style="fill:#767676;fill-opacity:1;stroke:#28561d;stroke-width:0.105833;stroke-linecap:round"
         id="path10"
         inkscape:flatsided="false"
         sodipodi:sides="5"
         sodipodi:cx="24.205692"
         sodipodi:cy="91.059509"
         sodipodi:r1="28.142445"
         sodipodi:r2="14.071222"
         sodipodi:arg1="0.89179102"
         sodipodi:arg2="1.5201095"
         inkscape:rounded="0"
         inkscape:randomized="0"
         d="M 41.87969,112.9599 24.918613,105.11266 8.8387509,114.63607 11.060656,96.080199 -2.9655972,83.730238 15.368693,80.109316 l 7.41116,-17.156108 9.109309,16.31802 18.606603,1.746903 -12.704428,13.706013 z"
         inkscape:transform-center-x="0.27982183"
         inkscape:transform-center-y="-1.3761331"
         transform="matrix(0.63508049,0,0,0.60759936,50.980277,166.22594)" />
    </g>
    <g
       id="g27"
       transform="translate(0.41341146,2.8938805)">
      <path
         sodipodi:type="star"
         style="fill:#427920;fill-opacity:1;stroke:#28561d;stroke-width:0.105833;stroke-linecap:round"
         id="path11"
         inkscape:flatsided="false"
         sodipodi:sides="5"
         sodipodi:cx="24.205692"
         sodipodi:cy="91.059509"
         sodipodi:r1="28.142445"
         sodipodi:r2="14.071222"
         sodipodi:arg1="0.89179102"
         sodipodi:arg2="1.5201095"
         inkscape:rounded="0"
         inkscape:randomized="0"
         d="M 41.87969,112.9599 24.918613,105.11266 8.8387509,114.63607 11.060656,96.080199 -2.9655972,83.730238 15.368693,80.109316 l 7.41116,-17.156108 9.109309,16.31802 18.606603,1.746903 -12.704428,13.706013 z"
         inkscape:transform-center-x="0.053753221"
         inkscape:transform-center-y="-1.6030456"
         transform="matrix(0.63449881,0.02717518,-0.02599925,0.60704285,15.353515,129.80922)" />
      <path
         sodipodi:type="star"
         style="fill:#767676;fill-opacity:1;stroke:#28561d;stroke-width:0.105833;stroke-linecap:round"
         id="path12"
         inkscape:flatsided="false"
         sodipodi:sides="5"
         sodipodi:cx="24.205692"
         sodipodi:cy="91.059509"
         sodipodi:r1="28.142445"
         sodipodi:r2="14.071222"
         sodipodi:arg1="0.89179102"
         sodipodi:arg2="1.5201095"
         inkscape:rounded="0"
         inkscape:randomized="0"
         d="M 41.87969,112.9599 24.918613,105.11266 8.8387509,114.63607 11.060656,96.080199 -2.9655972,83.730238 15.368693,80.109316 l 7.41116,-17.156108 9.109309,16.31802 18.606603,1.746903 -12.704428,13.706013 z"
         inkscape:transform-center-x="-0.056354565"
         inkscape:transform-center-y="-1.5534169"
         transform="matrix(0.63379491,0.0403887,-0.03864101,0.6063694,168.43664,129.5507)" />
      <path
         sodipodi:type="star"
         style="fill:#767676;fill-opacity:1;stroke:#28561d;stroke-width:0.105833;stroke-linecap:round"
         id="path13"
         inkscape:flatsided="false"
         sodipodi:sides="5"
         sodipodi:cx="24.205692"
         sodipodi:cy="91.059509"
         sodipodi:r1="28.142445"
         sodipodi:r2="14.071222"
         sodipodi:arg1="0.89179102"
         sodipodi:arg2="1.5201095"
         inkscape:rounded="0"
         inkscape:randomized="0"
         d="M 41.87969,112.9599 24.918613,105.11266 8.8387509,114.63607 11.060656,96.080199 -2.9655972,83.730238 15.368693,80.109316 l 7.41116,-17.156108 9.109309,16.31802 18.606603,1.746903 -12.704428,13.706013 z"
         inkscape:transform-center-x="0.048955769"
         inkscape:transform-center-y="-1.6078328"
         transform="matrix(0.63447385,0.02775175,-0.02655088,0.60701897,128.73421,129.79744)" />
      <path
         sodipodi:type="star"
         style="fill:#767676;fill-opacity:1;stroke:#28561d;stroke-width:0.105833;stroke-linecap:round"
         id="path14"
         inkscape:flatsided="false"
         sodipodi:sides="5"
         sodipodi:cx="24.205692"
         sodipodi:cy="91.059509"
         sodipodi:r1="28.142445"
         sodipodi:r2="14.071222"
         sodipodi:arg1="0.89179102"
         sodipodi:arg2="1.5201095"
         inkscape:rounded="0"
         inkscape:randomized="0"
         d="M 41.87969,112.9599 24.918613,105.11266 8.8387509,114.63607 11.060656,96.080199 -2.9655972,83.730238 15.368693,80.109316 l 7.41116,-17.156108 9.109309,16.31802 18.606603,1.746903 -12.704428,13.706013 z"
         inkscape:transform-center-x="-0.02605463"
         inkscape:transform-center-y="-1.5836029"
         transform="matrix(0.63401607,0.03675395,-0.03516353,0.60658099,91.164973,129.8399)" />
      <path
         sodipodi:type="star"
         style="fill:#427920;fill-opacity:1;stroke:#28561d;stroke-width:0.105833;stroke-linecap:round"
         id="path15"
         inkscape:flatsided="false"
         sodipodi:sides="5"
         sodipodi:cx="24.205692"
         sodipodi:cy="91.059509"
         sodipodi:r1="28.142445"
         sodipodi:r2="14.071222"
         sodipodi:arg1="0.89179102"
         sodipodi:arg2="1.5201095"
         inkscape:rounded="0"
         inkscape:randomized="0"
         d="M 41.87969,112.9599 24.918613,105.11266 8.8387509,114.63607 11.060656,96.080199 -2.9655972,83.730238 15.368693,80.109316 l 7.41116,-17.156108 9.109309,16.31802 18.606603,1.746903 -12.704428,13.706013 z"
         inkscape:transform-center-x="0.27982183"
         inkscape:transform-center-y="-1.3761331"
         transform="matrix(0.63508049,0,0,0.60759936,51.393689,130.25914)" />
    </g>
    <g
       id="g26"
       transform="translate(0.41341143,-2.0670574)">
      <path
         sodipodi:type="star"
         style="fill:#427920;fill-opacity:1;stroke:#28561d;stroke-width:0.105833;stroke-linecap:round"
         id="path16"
         inkscape:flatsided="false"
         sodipodi:sides="5"
         sodipodi:cx="24.205692"
         sodipodi:cy="91.059509"
         sodipodi:r1="28.142445"
         sodipodi:r2="14.071222"
         sodipodi:arg1="0.89179102"
         sodipodi:arg2="1.5201095"
         inkscape:rounded="0"
         inkscape:randomized="0"
         d="M 41.87969,112.9599 24.918613,105.11266 8.8387509,114.63607 11.060656,96.080199 -2.9655972,83.730238 15.368693,80.109316 l 7.41116,-17.156108 9.109309,16.31802 18.606603,1.746903 -12.704428,13.706013 z"
         inkscape:transform-center-x="0.053753221"
         inkscape:transform-center-y="-1.6030456"
         transform="matrix(0.63449881,0.02717518,-0.02599925,0.60704285,15.353515,91.775367)" />
      <path
         sodipodi:type="star"
         style="fill:#767676;fill-opacity:1;stroke:#28561d;stroke-width:0.105833;stroke-linecap:round"
         id="path17"
         inkscape:flatsided="false"
         sodipodi:sides="5"
         sodipodi:cx="24.205692"
         sodipodi:cy="91.059509"
         sodipodi:r1="28.142445"
         sodipodi:r2="14.071222"
         sodipodi:arg1="0.89179102"
         sodipodi:arg2="1.5201095"
         inkscape:rounded="0"
         inkscape:randomized="0"
         d="M 41.87969,112.9599 24.918613,105.11266 8.8387509,114.63607 11.060656,96.080199 -2.9655972,83.730238 15.368693,80.109316 l 7.41116,-17.156108 9.109309,16.31802 18.606603,1.746903 -12.704428,13.706013 z"
         inkscape:transform-center-x="-0.056354565"
         inkscape:transform-center-y="-1.5534169"
         transform="matrix(0.63379491,0.0403887,-0.03864101,0.6063694,168.43664,91.516848)" />
      <path
         sodipodi:type="star"
         style="fill:#767676;fill-opacity:1;stroke:#28561d;stroke-width:0.105833;stroke-linecap:round"
         id="path18"
         inkscape:flatsided="false"
         sodipodi:sides="5"
         sodipodi:cx="24.205692"
         sodipodi:cy="91.059509"
         sodipodi:r1="28.142445"
         sodipodi:r2="14.071222"
         sodipodi:arg1="0.89179102"
         sodipodi:arg2="1.5201095"
         inkscape:rounded="0"
         inkscape:randomized="0"
         d="M 41.87969,112.9599 24.918613,105.11266 8.8387509,114.63607 11.060656,96.080199 -2.9655972,83.730238 15.368693,80.109316 l 7.41116,-17.156108 9.109309,16.31802 18.606603,1.746903 -12.704428,13.706013 z"
         inkscape:transform-center-x="0.048955769"
         inkscape:transform-center-y="-1.6078328"
         transform="matrix(0.63447385,0.02775175,-0.02655088,0.60701897,128.73421,91.763585)" />
      <path
         sodipodi:type="star"
         style="fill:#427920;fill-opacity:1;stroke:#28561d;stroke-width:0.105833;stroke-linecap:round"
         id="path19"
         inkscape:flatsided="false"
         sodipodi:sides="5"
         sodipodi:cx="24.205692"
         sodipodi:cy="91.059509"
         sodipodi:r1="28.142445"
         sodipodi:r2="14.071222"
         sodipodi:arg1="0.89179102"
         sodipodi:arg2="1.5201095"
         inkscape:rounded="0"
         inkscape:randomized="0"
         d="M 41.87969,112.9599 24.918613,105.11266 8.8387509,114.63607 11.060656,96.080199 -2.9655972,83.730238 15.368693,80.109316 l 7.41116,-17.156108 9.109309,16.31802 18.606603,1.746903 -12.704428,13.706013 z"
         inkscape:transform-center-x="-0.02605463"
         inkscape:transform-center-y="-1.5836029"
         transform="matrix(0.63401607,0.03675395,-0.03516353,0.60658099,91.164973,91.806048)" />
      <path
         sodipodi:type="star"
         style="fill:#427920;fill-opacity:1;stroke:#28561d;stroke-width:0.105833;stroke-linecap:round"
         id="path20"
         inkscape:flatsided="false"
         sodipodi:sides="5"
         sodipodi:cx="24.205692"
         sodipodi:cy="91.059509"
         sodipodi:r1="28.142445"
         sodipodi:r2="14.071222"
         sodipodi:arg1="0.89179102"
         sodipodi:arg2="1.5201095"
         inkscape:rounded="0"
         inkscape:randomized="0"
         d="M 41.87969,112.9599 24.918613,105.11266 8.8387509,114.63607 11.060656,96.080199 -2.9655972,83.730238 15.368693,80.109316 l 7.41116,-17.156108 9.109309,16.31802 18.606603,1.746903 -12.704428,13.706013 z"
         inkscape:transform-center-x="0.27982183"
         inkscape:transform-center-y="-1.3761331"
         transform="matrix(0.63508049,0,0,0.60759936,51.393689,92.225287)" />
    </g>
    <g
       id="g25"
       transform="translate(1.6536458,-3.7207032)">
      <path
         sodipodi:type="star"
         style="fill:#427920;fill-opacity:1;stroke:#28561d;stroke-width:0.105833;stroke-linecap:round"
         id="path21"
         inkscape:flatsided="false"
         sodipodi:sides="5"
         sodipodi:cx="24.205692"
         sodipodi:cy="91.059509"
         sodipodi:r1="28.142445"
         sodipodi:r2="14.071222"
         sodipodi:arg1="0.89179102"
         sodipodi:arg2="1.5201095"
         inkscape:rounded="0"
         inkscape:randomized="0"
         d="M 41.87969,112.9599 24.918613,105.11266 8.8387509,114.63607 11.060656,96.080199 -2.9655972,83.730238 15.368693,80.109316 l 7.41116,-17.156108 9.109309,16.31802 18.606603,1.746903 -12.704428,13.706013 z"
         inkscape:transform-center-x="0.053753221"
         inkscape:transform-center-y="-1.6030456"
         transform="matrix(0.63449881,0.02717518,-0.02599925,0.60704285,14.940103,52.91469)" />
      <path
         sodipodi:type="star"
         style="fill:#767676;fill-opacity:1;stroke:#28561d;stroke-width:0.105833;stroke-linecap:round"
         id="path22"
         inkscape:flatsided="false"
         sodipodi:sides="5"
         sodipodi:cx="24.205692"
         sodipodi:cy="91.059509"
         sodipodi:r1="28.142445"
         sodipodi:r2="14.071222"
         sodipodi:arg1="0.89179102"
         sodipodi:arg2="1.5201095"
         inkscape:rounded="0"
         inkscape:randomized="0"
         d="M 41.87969,112.9599 24.918613,105.11266 8.8387509,114.63607 11.060656,96.080199 -2.9655972,83.730238 15.368693,80.109316 l 7.41116,-17.156108 9.109309,16.31802 18.606603,1.746903 -12.704428,13.706013 z"
         inkscape:transform-center-x="-0.056354565"
         inkscape:transform-center-y="-1.5534169"
         transform="matrix(0.63379491,0.0403887,-0.03864101,0.6063694,168.02323,52.656171)" />
      <path
         sodipodi:type="star"
         style="fill:#427920;fill-opacity:1;stroke:#28561d;stroke-width:0.105833;stroke-linecap:round"
         id="path23"
         inkscape:flatsided="false"
         sodipodi:sides="5"
         sodipodi:cx="24.205692"
         sodipodi:cy="91.059509"
         sodipodi:r1="28.142445"
         sodipodi:r2="14.071222"
         sodipodi:arg1="0.89179102"
         sodipodi:arg2="1.5201095"
         inkscape:rounded="0"
         inkscape:randomized="0"
         d="M 41.87969,112.9599 24.918613,105.11266 8.8387509,114.63607 11.060656,96.080199 -2.9655972,83.730238 15.368693,80.109316 l 7.41116,-17.156108 9.109309,16.31802 18.606603,1.746903 -12.704428,13.706013 z"
         inkscape:transform-center-x="0.048955769"
         inkscape:transform-center-y="-1.6078328"
         transform="matrix(0.63447385,0.02775175,-0.02655088,0.60701897,128.3208,52.902908)" />
      <path
         sodipodi:type="star"
         style="fill:#427920;fill-opacity:1;stroke:#28561d;stroke-width:0.105833;stroke-linecap:round"
         id="path24"
         inkscape:flatsided="false"
         sodipodi:sides="5"
         sodipodi:cx="24.205692"
         sodipodi:cy="91.059509"
         sodipodi:r1="28.142445"
         sodipodi:r2="14.071222"
         sodipodi:arg1="0.89179102"
         sodipodi:arg2="1.5201095"
         inkscape:rounded="0"
         inkscape:randomized="0"
         d="M 41.87969,112.9599 24.918613,105.11266 8.8387509,114.63607 11.060656,96.080199 -2.9655972,83.730238 15.368693,80.109316 l 7.41116,-17.156108 9.109309,16.31802 18.606603,1.746903 -12.704428,13.706013 z"
         inkscape:transform-center-x="-0.02605463"
         inkscape:transform-center-y="-1.5836029"
         transform="matrix(0.63401607,0.03675395,-0.03516353,0.60658099,90.751562,52.945371)" />
      <path
         sodipodi:type="star"
         style="fill:#427920;fill-opacity:1;stroke:#28561d;stroke-width:0.105833;stroke-linecap:round"
         id="path25"
         inkscape:flatsided="false"
         sodipodi:sides="5"
         sodipodi:cx="24.205692"
         sodipodi:cy="91.059509"
         sodipodi:r1="28.142445"
         sodipodi:r2="14.071222"
         sodipodi:arg1="0.89179102"
         sodipodi:arg2="1.5201095"
         inkscape:rounded="0"
         inkscape:randomized="0"
         d="M 41.87969,112.9599 24.918613,105.11266 8.8387509,114.63607 11.060656,96.080199 -2.9655972,83.730238 15.368693,80.109316 l 7.41116,-17.156108 9.109309,16.31802 18.606603,1.746903 -12.704428,13.706013 z"
         inkscape:transform-center-x="0.27982183"
         inkscape:transform-center-y="-1.3761331"
         transform="matrix(0.63508049,0,0,0.60759936,50.980278,53.36461)" />
    </g>
  </g>
</svg>
